<?xml version="1.0" encoding="utf-8"?>
<!-- Generator: Adobe Illustrator 16.0.0, SVG Export Plug-In . SVG Version: 6.00 Build 0)  -->
<!DOCTYPE svg PUBLIC "-//W3C//DTD SVG 1.1//EN" "http://www.w3.org/Graphics/SVG/1.1/DTD/svg11.dtd">
<svg version="1.1" xmlns="http://www.w3.org/2000/svg" xmlns:xlink="http://www.w3.org/1999/xlink" x="0px" y="0px"
	 width="279.883px" height="417.451px" viewBox="0 0 279.883 417.451" enable-background="new 0 0 279.883 417.451"
	 xml:space="preserve">
<g id="Layer_2">
	<g>
		<g>
			<g>
				<polygon fill="#00A69A" points="-533.11,-12.989 -491.557,135.511 -767.557,384.511 -868.057,286.011 -993.557,203.011 
					-964.557,-135.489 -912.057,-167.489 -872.057,-100.989 -819.057,-220.99 -782.057,-220.99 -776.557,-109.989 
					-735.557,-210.489 -664.557,-205.989 -666.057,-85.989 -612.557,-187.989 -546.057,-151.227 -611.557,72.511 				"/>
			</g>
			<g>
				<g>
					<path fill="#536571" d="M-781.182,321.503c-1.474,0-2.953-0.361-4.3-1.094l-155.823-84.768c-3.033-1.65-4.855-4.891-4.689-8.34
						l14.959-310.399c0.179-3.711,2.619-6.93,6.144-8.105l29.918-9.973c2.326-0.775,4.868-0.568,7.038,0.574s3.78,3.12,4.458,5.476
						l17.8,61.876l33.508-109.394c1.159-3.782,4.65-6.364,8.605-6.364h42.384c2.463,0,4.818,1.009,6.517,2.792
						c1.699,1.783,2.592,4.184,2.473,6.644l-3.756,77.379l38.824-92.517c1.402-3.343,4.674-5.518,8.299-5.518h43.632
						c2.567,0,5.013,1.097,6.721,3.014s2.516,4.473,2.22,7.023l-12.272,105.725l64.629-88.389c2.614-3.578,7.445-4.718,11.387-2.689
						l41.136,21.191c4.035,2.079,5.891,6.835,4.33,11.097l-75.679,206.584l76.883-38.829c2.154-1.089,4.656-1.265,6.94-0.492
						c2.286,0.773,4.166,2.432,5.218,4.604l28.672,59.213c1.896,3.918,0.718,8.633-2.801,11.196l-248.07,180.755
						C-777.451,320.921-779.313,321.503-781.182,321.503z M-927.743,222.528l145.863,79.349l237.392-172.975l-21.406-44.208
						l-89.063,44.98c-3.3,1.666-7.279,1.146-10.04-1.31c-2.761-2.456-3.739-6.35-2.469-9.819l80.788-220.532l-27.231-14.028
						L-694.135-6.297c-2.411,3.299-6.74,4.559-10.548,3.068c-3.805-1.491-6.128-5.358-5.657-9.417l15.041-129.58h-27.543
						l-56.273,134.1c-1.69,4.028-6.031,6.257-10.289,5.295c-4.26-0.966-7.211-4.851-7-9.214l5.775-118.962h-26.281L-857.343,0.999
						c-1.167,3.809-4.725,6.399-8.683,6.364c-3.983-0.034-7.471-2.683-8.572-6.511l-23.584-81.984l-15.17,5.057L-927.743,222.528z"
						/>
				</g>
			</g>
		</g>
		<g>
			<path fill="#536672" stroke="#536672" stroke-width="5" stroke-miterlimit="10" d="M-982.567,499.211l-15.939,43.47h-19.872
				l53.613-143.865h23.184l56.304,143.865h-19.458l-16.767-43.47H-982.567z M-977.186,483.893h49.68l-19.665-50.653l-5.796-20.969
				l-5.589,20.969L-977.186,483.893z"/>
			<path fill="#536672" stroke="#536672" stroke-width="5" stroke-miterlimit="10" d="M-850.918,398.815v62.929h14.49l41.193-62.929
				h21.321l-44.712,69.759l53.406,74.106h-22.356l-48.438-67.275h-14.904v67.275h-18.63V398.815H-850.918z"/>
			<path fill="#536672" stroke="#536672" stroke-width="5" stroke-miterlimit="10" d="M-719.061,499.211L-735,542.681h-19.872
				l53.613-143.865h23.185l56.304,143.865h-19.458l-16.768-43.47H-719.061z M-713.679,483.893h49.68l-19.665-50.653l-5.796-20.969
				l-5.589,20.969L-713.679,483.893z"/>
			<path fill="#536672" stroke="#536672" stroke-width="5" stroke-miterlimit="10" d="M-606.041,542.681V398.815h23.805
				l71.829,115.506V398.815h18.63v143.865h-22.77l-72.864-117.783v117.783H-606.041z"/>
		</g>
	</g>
	<g>
		<g>
			<g>
				<polygon fill="#00A69A" points="257.856,116.335 279.941,195.261 133.251,327.602 79.836,275.25 13.134,231.137 28.547,51.228 
					56.45,34.22 77.71,69.563 105.879,5.784 125.544,5.784 128.467,64.78 150.258,11.365 187.994,13.758 187.197,77.536 
					215.632,23.324 250.976,42.863 216.163,161.777 				"/>
			</g>
			<g>
				<g>
					<path fill="#536571" d="M126.009,294.114c-0.783,0-1.569-0.192-2.285-0.582l-82.818-45.053c-1.612-0.877-2.58-2.6-2.492-4.433
						l7.95-164.974c0.096-1.973,1.393-3.684,3.266-4.308l15.901-5.301c1.236-0.412,2.587-0.303,3.74,0.305s2.009,1.658,2.369,2.91
						l9.461,32.887l17.809-58.142c0.616-2.01,2.472-3.383,4.574-3.383h22.526c1.309,0,2.561,0.537,3.463,1.484
						c0.903,0.947,1.378,2.224,1.314,3.531l-1.996,41.126l20.635-49.172c0.745-1.776,2.483-2.933,4.41-2.933h23.189
						c1.365,0,2.665,0.583,3.572,1.603c0.908,1.019,1.337,2.377,1.18,3.732l-6.522,56.191l34.35-46.978
						c1.39-1.901,3.957-2.508,6.052-1.429l21.863,11.263c2.145,1.104,3.131,3.633,2.302,5.897l-40.223,109.798l40.862-20.638
						c1.145-0.578,2.475-0.672,3.688-0.261c1.216,0.411,2.215,1.292,2.773,2.446l15.239,31.471c1.008,2.083,0.381,4.589-1.489,5.951
						l-131.847,96.069C127.992,293.805,127.003,294.114,126.009,294.114z M48.113,241.51l77.524,42.173l126.171-91.935
						l-11.377-23.496l-47.336,23.907c-1.754,0.885-3.869,0.609-5.336-0.696c-1.468-1.306-1.987-3.375-1.313-5.219l42.938-117.211
						l-14.473-7.456l-42.639,58.314c-1.281,1.753-3.582,2.423-5.605,1.63c-2.022-0.792-3.258-2.848-3.007-5.005l7.994-68.87h-14.64
						l-29.908,71.272c-0.898,2.141-3.205,3.325-5.469,2.814c-2.264-0.514-3.832-2.578-3.72-4.897l3.069-63.227h-13.968
						l-21.491,70.16c-0.619,2.024-2.511,3.4-4.613,3.382c-2.118-0.018-3.971-1.426-4.557-3.46L63.825,80.117l-8.063,2.688
						L48.113,241.51z"/>
				</g>
			</g>
		</g>
		<g>
			<path fill="#536672" stroke="#536672" stroke-width="5" stroke-miterlimit="10" d="M18.975,388.563l-8.472,23.104H-0.059
				l28.495-76.462h12.321l29.926,76.462H60.342l-8.911-23.104H18.975z M21.835,380.422h26.404l-10.451-26.921l-3.081-11.146
				l-2.971,11.146L21.835,380.422z"/>
			<path fill="#536672" stroke="#536672" stroke-width="5" stroke-miterlimit="10" d="M88.945,335.205v33.445h7.701l21.894-33.445
				h11.332l-23.765,37.075l28.385,39.387H122.61l-25.744-35.756h-7.921v35.756h-9.902v-76.462H88.945z"/>
			<path fill="#536672" stroke="#536672" stroke-width="5" stroke-miterlimit="10" d="M159.025,388.563l-8.471,23.104h-10.562
				l28.494-76.462h12.322l29.925,76.462h-10.342l-8.912-23.104H159.025z M161.887,380.422h26.403l-10.451-26.921l-3.081-11.146
				l-2.97,11.146L161.887,380.422z"/>
			<path fill="#536672" stroke="#536672" stroke-width="5" stroke-miterlimit="10" d="M219.095,411.667v-76.462h12.651l38.177,61.39
				v-61.39h9.901v76.462h-12.102l-38.727-62.6v62.6H219.095z"/>
		</g>
	</g>
</g>
<g id="Layer_4" display="none">
	<polygon display="inline" fill="#00A699" points="-689.325,317.713 -942.121,270.496 -956.065,63.327 -942.121,-39.632 
		-875.328,-74.36 -865.064,-41.239 -849.81,-94.62 -786.025,-103.418 -762.235,-99.019 -674.767,-81.32 -618.245,-162.069 
		-548.188,-115.146 -621.958,65.897 -563.876,41.748 -490.355,109.934 	"/>
	<g display="inline">
		<g>
			<path fill="#526571" d="M-776.604,327.554c-1.469,0-2.942-0.353-4.282-1.073l-156.482-84.312
				c-3.067-1.645-4.915-4.914-4.742-8.39l12.939-269.296c0.159-3.266,2.062-6.186,4.983-7.648l41.472-20.77
				c2.402-1.199,5.215-1.276,7.673-0.193c2.457,1.082,4.313,3.196,5.056,5.778l10.211,35.496l12.011-49.565
				c0.829-3.415,3.566-6.045,7.02-6.74l59.77-11.921c2.728-0.542,5.554,0.197,7.668,2.014c2.109,1.818,3.265,4.502,3.127,7.286
				l-1.092,22.523l12.682-28.893c1.778-4.064,6.238-6.222,10.529-5.122l63.716,16.418c4.574,1.173,7.471,5.688,6.646,10.336
				l-4.76,26.694l63.759-88.834c2.38-3.312,6.687-4.618,10.5-3.2l43.255,16.123c4.661,1.735,7.041,6.907,5.326,11.577
				l-77.935,212.611l77.2-38.985c2.165-1.096,4.678-1.275,6.974-0.497c2.294,0.777,4.179,2.443,5.24,4.622l28.791,59.468
				c1.904,3.935,0.722,8.669-2.814,11.247l-249.118,181.509C-772.858,326.964-774.727,327.554-776.604,327.554z M-923.781,228.955
				l146.455,78.907l238.418-173.718l-21.497-44.402l-89.44,45.175c-3.316,1.671-7.313,1.143-10.086-1.323
				c-2.772-2.462-3.755-6.371-2.476-9.854l82.721-225.676l-28.36-10.563L-691.008,3.086c-2.463,3.433-6.968,4.691-10.861,3.054
				c-3.883-1.641-6.125-5.761-5.383-9.906l10.28-57.677l-48.157-12.412l-29.272,66.69c-1.753,3.995-6.104,6.169-10.344,5.168
				c-4.244-0.997-7.17-4.885-6.959-9.24l2.904-59.85l-42.753,8.531l-18.688,77.124c-0.971,3.991-4.497,6.809-8.6,6.903
				c-0.061,0-0.129,0-0.189,0c-4.021,0-7.569-2.658-8.687-6.53l-16.634-57.834l-27.021,13.519L-923.781,228.955z"/>
		</g>
	</g>
	<g display="inline">
		<g>
			<g>
				<path fill="#526571" d="M-987.219,496.4l-16.136,44.007h-20.113l54.274-145.644h23.472l56.998,145.644h-19.7l-16.97-44.007
					H-987.219z M-981.763,480.892h50.288l-19.907-51.281l-5.868-21.228l-5.654,21.228L-981.763,480.892z"/>
				<path fill="#526571" d="M-885.011,542.938h-25.148l-16.967-44.007h-58.322l-16.135,44.007h-25.535l56.165-150.704h26.961
					L-885.011,542.938z M-906.68,537.878h14.254l-55.022-140.585h-19.984l-52.393,140.585h14.701l16.143-44.008h65.323
					L-906.68,537.878z M-927.772,483.421h-57.616l20.07-54.575l8.025-30.121l8.317,30.087L-927.772,483.421z M-978.137,478.358
					h42.968l-18.653-48.071l-3.385-12.245l-3.325,12.44L-978.137,478.358z"/>
			</g>
			<g>
				<path fill="#526571" d="M-853.935,394.764v63.704h14.666l41.705-63.704h21.583l-45.261,70.62l54.059,75.023h-22.63
					l-49.033-68.105h-15.087v68.105h-18.867V394.764H-853.935z"/>
				<path fill="#526571" d="M-762.235,542.938h-28.868l-49.042-68.106h-11.264v68.106h-23.919V392.233h23.919v63.704h10.774
					l41.705-63.704h27.58l-46.834,73.063L-762.235,542.938z M-788.517,537.878h16.393l-52.178-72.413l43.689-68.172h-15.586
					l-41.704,63.705h-18.567v-63.705h-13.798v140.585h13.798v-68.107h18.919L-788.517,537.878z"/>
			</g>
			<g>
				<path fill="#526571" d="M-720.444,496.4l-16.144,44.007h-20.114l54.275-145.644h23.473l56.996,145.644h-19.7l-16.969-44.007
					H-720.444z M-714.997,480.892h50.288l-19.907-51.281l-5.859-21.228l-5.662,21.228L-714.997,480.892z"/>
				<path fill="#526571" d="M-618.245,542.938h-25.139l-16.978-44.007h-58.321l-16.136,44.007h-25.525l56.165-150.704h26.953
					L-618.245,542.938z M-639.915,537.878h14.256l-55.022-140.585h-19.984l-52.393,140.585h14.709l16.134-44.008h65.324
					L-639.915,537.878z M-661.008,483.421h-57.615l20.071-54.575l8.024-30.121l8.316,30.087L-661.008,483.421z M-711.37,478.358
					h42.966l-18.653-48.071l-3.375-12.245l-3.334,12.44L-711.37,478.358z"/>
			</g>
			<g>
				<path fill="#526571" d="M-606.028,540.407V394.764h24.102l72.711,116.934V394.764h18.86v145.644h-23.054l-73.76-119.236v119.236
					H-606.028z"/>
				<path fill="#526571" d="M-487.822,542.938h-26.994l-69.827-112.871v112.871h-23.918V392.233h28.034l68.784,110.602V392.233
					h23.921V542.938z M-511.992,537.878h19.11V397.293h-13.799V520.56l-76.655-123.267h-20.166v140.585h13.799V412.266
					L-511.992,537.878z"/>
			</g>
		</g>
	</g>
</g>
<g id="Layer_3" display="none">
	<g display="inline">
		<polygon fill="#00A699" points="-736.312,349.452 -533.91,253.313 -579.322,209.239 -552.268,141.975 -545.289,13.598 
			-480.926,-71.305 -545.289,-98.783 -545.289,-130.888 -646.088,-145.113 -625.793,-192.784 -711.973,-199.129 -740.253,-242.511 
			-880.594,-199.133 -897.75,-132.046 -1042.134,1.513 -894.865,199.378 -915.186,335.016 		"/>
		<g>
			<g>
				<g>
					<path fill="#526571" d="M-859.681,224.014c-2.885,0-5.719-1.387-7.445-3.958l-121.965-180.99
						c-2.774-4.108-1.683-9.687,2.428-12.453c4.104-2.766,9.678-1.683,12.452,2.424l121.965,180.993
						c2.767,4.107,1.675,9.683-2.428,12.454C-856.212,223.521-857.956,224.014-859.681,224.014z"/>
				</g>
				<g>
					<path fill="#526571" d="M-981.655,43.025c-2.013,0-4.035-0.672-5.71-2.056c-3.824-3.152-4.365-8.808-1.209-12.626
						l102.338-124.012c3.155-3.82,8.806-4.366,12.622-1.206c3.824,3.152,4.365,8.807,1.218,12.626L-974.734,39.764
						C-976.502,41.913-979.074,43.025-981.655,43.025z"/>
				</g>
				<g>
					<path fill="#526571" d="M-775.243-34.721c-1.218,0-2.454-0.25-3.638-0.774l-104.082-46.267
						c-4.526-2.013-6.564-7.313-4.56-11.839c2.014-4.53,7.318-6.561,11.845-4.556l104.081,46.263
						c4.526,2.013,6.573,7.313,4.559,11.843C-768.526-36.708-771.8-34.721-775.243-34.721z"/>
				</g>
				<g>
					<path fill="#526571" d="M-786.368,16.994c-0.626,0-1.26-0.067-1.895-0.203c-4.848-1.044-7.927-5.815-6.887-10.659
						l11.142-51.715c1.041-4.843,5.813-7.926,10.659-6.882c4.847,1.045,7.927,5.816,6.878,10.66l-11.133,51.715
						C-778.509,14.114-782.231,16.994-786.368,16.994z"/>
				</g>
				<g>
					<path fill="#526571" d="M-786.368,16.991c-0.093,0-0.186,0-0.279-0.004l-86.891-2.602c-4.958-0.148-8.849-4.281-8.705-9.234
						c0.153-4.953,4.29-8.857,9.238-8.701l86.899,2.606c4.948,0.148,8.848,4.281,8.697,9.234
						C-777.553,13.149-781.538,16.991-786.368,16.991z"/>
				</g>
				<g>
					<path fill="#526571" d="M-803.161,51.417c-1.413,0-2.851-0.334-4.188-1.037l-70.115-37.029
						c-4.382-2.314-6.057-7.745-3.739-12.123c2.309-4.382,7.741-6.057,12.123-3.743l70.115,37.029
						c4.382,2.31,6.058,7.736,3.74,12.123C-796.833,49.679-799.946,51.417-803.161,51.417z"/>
				</g>
				<g>
					<path fill="#526571" d="M-867.473-75.721c-0.744,0-1.498-0.093-2.241-0.288c-4.805-1.236-7.69-6.129-6.455-10.926
						l18.967-73.511c1.244-4.797,6.133-7.682,10.93-6.447c4.797,1.239,7.682,6.134,6.446,10.93l-18.966,73.512
						C-859.833-78.408-863.479-75.721-867.473-75.721z"/>
				</g>
				<g>
					<path fill="#526571" d="M-750.761-142.884c-0.195,0-0.389-0.004-0.592-0.017l-97.745-6.35
						c-4.941-0.321-8.688-4.593-8.367-9.539c0.322-4.94,4.578-8.68,9.535-8.367l97.745,6.349c4.941,0.322,8.688,4.589,8.367,9.535
						C-742.123-146.525-746.074-142.884-750.761-142.884z"/>
				</g>
				<g>
					<path fill="#526571" d="M-785.649-39.349c-0.956,0-1.921-0.152-2.869-0.473c-4.694-1.582-7.224-6.671-5.633-11.366
						l34.879-103.531c1.582-4.694,6.675-7.216,11.371-5.638c4.695,1.585,7.216,6.674,5.634,11.37l-34.88,103.527
						C-778.416-41.712-781.91-39.349-785.649-39.349z"/>
				</g>
				<g>
					<path fill="#526571" d="M-814.26,45.555c-0.947,0-1.904-0.148-2.851-0.465c-4.704-1.578-7.234-6.663-5.66-11.362l9.763-29.102
						c1.574-4.695,6.65-7.229,11.353-5.656c4.696,1.574,7.233,6.663,5.652,11.358l-9.755,29.106
						C-807.01,43.186-810.513,45.555-814.26,45.555z"/>
				</g>
				<g>
					<path fill="#526571" d="M-672.896-113.156c-0.169,0-0.339-0.004-0.508-0.018l-86.248-4.872c-4.94-0.279-8.73-4.519-8.442-9.462
						c0.271-4.949,4.509-8.744,9.458-8.452l86.239,4.876c4.949,0.275,8.73,4.514,8.452,9.462
						C-664.217-116.844-668.167-113.156-672.896-113.156z"/>
				</g>
				<g>
					<path fill="#526571" d="M-762.004,95.112c-1.185,0-2.377-0.233-3.528-0.724c-4.56-1.949-6.666-7.224-4.72-11.776
						l89.107-208.268c1.945-4.555,7.225-6.666,11.776-4.72c4.551,1.95,6.666,7.22,4.711,11.776l-89.098,208.268
						C-755.211,93.074-758.527,95.112-762.004,95.112z"/>
				</g>
				<g>
					<path fill="#526571" d="M-764.237,169.698c-3.774,0-7.284-2.393-8.52-6.171L-811.68,45.25
						c-1.548-4.708,1.015-9.78,5.719-11.328c4.704-1.549,9.779,1.011,11.328,5.718l38.916,118.276
						c1.548,4.709-1.007,9.78-5.719,11.328C-762.368,169.549-763.307,169.698-764.237,169.698z"/>
				</g>
				<g>
					<path fill="#526571" d="M-593.771-56.683c-0.778,0-1.565-0.101-2.362-0.313L-688.521-82.1
						c-4.779-1.299-7.605-6.227-6.303-11.006c1.294-4.784,6.234-7.605,11.006-6.307l92.391,25.101
						c4.779,1.299,7.604,6.227,6.311,11.01C-586.209-59.309-589.821-56.683-593.771-56.683z"/>
				</g>
				<g>
					<path fill="#526571" d="M-696.981,118.973c-1.54,0-3.104-0.397-4.534-1.235c-4.272-2.508-5.703-8.007-3.189-12.28
						l103.192-175.656c2.514-4.271,8.012-5.705,12.283-3.193c4.272,2.513,5.694,8.007,3.19,12.28l-103.202,175.66
						C-690.907,117.391-693.902,118.973-696.981,118.973z"/>
				</g>
				<g>
					<path fill="#526571" d="M-754.703,80.266c-0.609,0-1.235-0.064-1.861-0.195l-41.868-8.849
						c-4.847-1.027-7.944-5.787-6.92-10.634c1.023-4.847,5.778-7.948,10.634-6.919l41.859,8.844
						c4.848,1.028,7.952,5.787,6.928,10.634C-746.827,77.368-750.549,80.266-754.703,80.266z"/>
				</g>
				<g>
					<path fill="#526571" d="M-696.974,118.978c-1.023,0-2.063-0.178-3.088-0.555l-65.03-23.861
						c-4.653-1.705-7.039-6.861-5.338-11.514c1.708-4.648,6.86-7.039,11.514-5.33l65.039,23.861
						c4.645,1.708,7.039,6.86,5.329,11.513C-689.884,116.723-693.319,118.978-696.974,118.978z"/>
				</g>
				<g>
					<path fill="#526571" d="M-622.307,118.47c-0.956,0-1.93-0.153-2.886-0.479l-62.01-21.03c-4.694-1.59-7.208-6.688-5.608-11.379
						c1.582-4.69,6.684-7.203,11.37-5.613L-619.422,101c4.688,1.59,7.198,6.688,5.609,11.378
						C-615.073,116.118-618.567,118.47-622.307,118.47z"/>
				</g>
				<g>
					<path fill="#526571" d="M-533.241-19.67c-0.567,0-1.142-0.056-1.719-0.165l-73.845-14.334
						c-4.864-0.943-8.046-5.652-7.099-10.516c0.939-4.865,5.644-8.046,10.517-7.098l73.845,14.335
						c4.864,0.943,8.047,5.651,7.099,10.516C-525.272-22.648-529.028-19.67-533.241-19.67z"/>
				</g>
				<g>
					<path fill="#526571" d="M-622.315,118.47c-1.666,0-3.35-0.461-4.848-1.43c-4.17-2.686-5.362-8.24-2.682-12.402l89.056-138.14
						c2.684-4.167,8.233-5.369,12.402-2.683c4.163,2.687,5.365,8.236,2.674,12.402l-89.056,138.141
						C-616.479,117.019-619.372,118.47-622.315,118.47z"/>
				</g>
				<g>
					<path fill="#526571" d="M-566.718,183.137c-4.847,0-8.84-3.858-8.967-8.734L-579.5,29.417c-0.127-4.953,3.781-9.072,8.73-9.204
						c0.085-0.005,0.169-0.005,0.246-0.005c4.846,0,8.831,3.862,8.966,8.739l3.809,144.985c0.135,4.952-3.782,9.073-8.731,9.204
						C-566.565,183.137-566.641,183.137-566.718,183.137z"/>
				</g>
				<g>
					<path fill="#526571" d="M-615.039,231.336c-2.302,0-4.604-0.875-6.354-2.635c-3.501-3.506-3.493-9.188,0.017-12.685
						l48.323-48.2c3.511-3.499,9.195-3.49,12.69,0.017c3.501,3.506,3.493,9.188-0.018,12.685l-48.331,48.201
						C-610.464,230.465-612.756,231.336-615.039,231.336z"/>
				</g>
				<g>
					<path fill="#526571" d="M-838.227,319.496c-4.104,0-7.809-2.834-8.739-7.009c-1.091-4.835,1.954-9.631,6.785-10.72
						l225.099-50.496c4.839-1.082,9.636,1.959,10.719,6.794c1.082,4.834-1.954,9.636-6.793,10.719l-225.091,50.493
						C-836.916,319.429-837.575,319.496-838.227,319.496z"/>
				</g>
				<g>
					<path fill="#526571" d="M-613.128,268.999c-4.745,0-8.705-3.722-8.95-8.51l-1.929-37.663c-0.254-4.95,3.553-9.167,8.501-9.419
						c4.916-0.262,9.171,3.551,9.416,8.501l1.929,37.663c0.254,4.949-3.552,9.166-8.502,9.42
						C-612.815,268.995-612.976,268.999-613.128,268.999z"/>
				</g>
				<g>
					<path fill="#526571" d="M-838.227,319.496c-4.104,0-7.8-2.834-8.739-7.005l-21.48-95.481
						c-1.083-4.835,1.955-9.636,6.785-10.719c4.839-1.1,9.635,1.951,10.727,6.781l21.471,95.486
						c1.091,4.835-1.946,9.631-6.785,10.72C-836.907,319.429-837.566,319.496-838.227,319.496z"/>
				</g>
			</g>
			<g>
				<g>
					<path fill="#526571" d="M-983.059,499.624l-15.887,43.33h-19.804l53.44-143.406h23.112l56.122,143.406h-19.398l-16.708-43.33
						H-983.059z M-977.687,484.353h49.516l-19.602-50.492l-5.778-20.904l-5.567,20.904L-977.687,484.353z"/>
					<path fill="#526571" d="M-882.421,545.445h-24.762l-16.708-43.331h-57.424l-15.888,43.331h-25.142l55.301-148.389h26.547
						L-882.421,545.445z M-903.756,540.463h14.035l-54.176-138.425h-19.678l-51.587,138.425h14.475l15.895-43.332h64.32
						L-903.756,540.463z M-924.525,486.845h-56.732l19.762-53.737l7.901-29.66l8.189,29.626L-924.525,486.845z M-974.117,481.861
						h42.308l-18.367-47.336l-3.333-12.057l-3.275,12.251L-974.117,481.861z"/>
				</g>
				<g>
					<path fill="#526571" d="M-851.822,399.548v62.725h14.441l41.064-62.725h21.25l-44.566,69.535l53.229,73.871h-22.283
						l-48.28-67.061h-14.855v67.061h-18.578V399.548H-851.822z"/>
					<path fill="#526571" d="M-761.53,545.445h-28.425l-48.289-67.061h-11.09v67.061h-23.553V397.057h23.553v62.725h10.609
						l41.063-62.725h27.155l-46.114,71.94L-761.53,545.445z M-787.408,540.463h16.141l-51.376-71.3l43.018-67.125h-15.346
						l-41.064,62.726h-18.282v-62.726h-13.586v138.425h13.586v-67.062h18.628L-787.408,540.463z"/>
				</g>
				<g>
					<path fill="#526571" d="M-720.382,499.624l-15.896,43.33h-19.804l53.441-143.406h23.111l56.123,143.406h-19.398l-16.708-43.33
						H-720.382z M-715.018,484.353h49.516l-19.603-50.492l-5.77-20.904l-5.574,20.904L-715.018,484.353z"/>
					<path fill="#526571" d="M-619.752,545.445h-24.753l-16.717-43.331h-57.426l-15.888,43.331h-25.134l55.302-148.389h26.538
						L-619.752,545.445z M-641.088,540.463h14.036l-54.178-138.425h-19.677l-51.588,138.425h14.483l15.888-43.332h64.32
						L-641.088,540.463z M-661.856,486.845h-56.731l19.762-53.737l7.901-29.66l8.189,29.626L-661.856,486.845z M-711.448,481.861
						h42.308l-18.366-47.336l-3.324-12.057l-3.282,12.251L-711.448,481.861z"/>
				</g>
				<g>
					<path fill="#526571" d="M-607.722,542.954V399.548h23.729l71.596,115.138V399.548h18.568v143.406h-22.697l-72.628-117.41
						v117.41H-607.722z"/>
					<path fill="#526571" d="M-491.332,545.445h-26.58l-68.754-111.137v111.137h-23.552V397.057h27.604l67.729,108.903V397.057
						h23.553V545.445z M-515.13,540.463h18.815V402.038h-13.588v121.374l-75.478-121.374h-19.854v138.425h13.586V416.779
						L-515.13,540.463z"/>
				</g>
			</g>
		</g>
	</g>
</g>
<g id="Layer_5" display="none">
	<g display="inline">
		<polygon fill="#00A699" points="-681.483,315.835 -845.869,324.007 -845.869,238.046 -963.525,62.264 -936.635,16.007 
			-936.635,-153.716 -829.932,-205.297 -772.445,-96.085 -713.817,-205.297 -607.306,-153.716 -661.03,-35.327 -587.305,-17.366 
			-590.048,2.537 -525.184,19.45 -566.621,95.356 -577.531,214.3 -609.308,244.069 -587.305,329.816 		"/>
		<g>
			<g>
				<g>
					<path fill="#526571" d="M-982.577,497.163l-15.907,43.386h-19.831l53.503-143.575h23.141l56.191,143.575h-19.422
						l-16.733-43.386H-982.577z M-977.204,481.878h49.58l-19.626-50.551l-5.786-20.934l-5.577,20.934L-977.204,481.878z"/>
					<path fill="#526571" d="M-881.829,543.036h-24.785l-16.734-43.376h-57.486l-15.907,43.376h-25.165l55.364-148.559h26.57
						L-881.829,543.036z M-903.189,538.052h14.05l-54.236-138.582h-19.703l-51.646,138.582h14.497l15.907-43.385h64.396
						L-903.189,538.052z M-923.983,484.375h-56.795l19.784-53.798l7.915-29.701l8.196,29.667L-923.983,484.375z M-973.63,479.391
						h42.363l-18.387-47.398l-3.34-12.064l-3.28,12.26L-973.63,479.391z"/>
				</g>
				<g>
					<path fill="#526571" d="M-851.194,396.974v62.803h14.463l41.106-62.803h21.275l-44.621,69.619l53.299,73.956h-22.306
						l-48.34-67.14h-14.876v67.14h-18.591V396.974H-851.194z"/>
					<path fill="#526571" d="M-760.794,543.036h-28.466l-48.335-67.131h-11.103v67.131h-23.584V394.478h23.584v62.802h10.617
						l41.11-62.802h27.188l-46.167,72.039L-760.794,543.036z M-786.704,538.052h16.159l-51.441-71.374l43.078-67.208h-15.366
						l-41.106,62.804h-18.306V399.47h-13.603v138.582h13.603v-67.131h18.646L-786.704,538.052z"/>
				</g>
				<g>
					<path fill="#526571" d="M-719.603,497.163l-15.907,43.386h-19.832l53.507-143.575h23.133l56.19,143.575h-19.417l-16.734-43.386
						H-719.603z M-714.23,481.878h49.578l-19.625-50.551l-5.781-20.934l-5.581,20.934L-714.23,481.878z"/>
					<path fill="#526571" d="M-618.855,543.036h-24.785l-16.734-43.376h-57.485l-15.907,43.376h-25.169l55.365-148.559h26.575
						L-618.855,543.036z M-640.215,538.052h14.05l-54.24-138.582h-19.699l-51.641,138.582h14.493l15.907-43.385h64.396
						L-640.215,538.052z M-661.005,484.375h-56.805l19.789-53.798l7.914-29.701l8.197,29.667L-661.005,484.375z M-710.652,479.391
						h42.354l-18.383-47.398l-3.335-12.064l-3.281,12.26L-710.652,479.391z"/>
				</g>
				<g>
					<path fill="#526571" d="M-606.813,540.549V396.974h23.755l71.686,115.271V396.974h18.591v143.575h-22.723l-72.716-117.546
						v117.546H-606.813z"/>
					<path fill="#526571" d="M-490.284,543.036h-26.608l-68.836-111.266v111.266h-23.579V394.478h27.635l67.804,109.033V394.478
						h23.585V543.036z M-514.115,538.052h18.838V399.47h-13.598v121.517l-75.567-121.517h-19.877v138.582h13.606V414.228
						L-514.115,538.052z"/>
				</g>
			</g>
			<g>
				<g>
					
						<rect x="-706.155" y="-159.259" transform="matrix(0.9174 0.3979 -0.3979 0.9174 -115.5267 256.233)" fill="#526571" width="61.869" height="17.97"/>
				</g>
				<g>
					<path fill="#526571" d="M-826.332,238.046c-2.884,0-5.717-1.397-7.455-3.962L-935.102,83.718
						c-2.769-4.107-1.683-9.696,2.428-12.465c4.12-2.769,9.701-1.687,12.474,2.428l101.306,150.366
						c2.778,4.106,1.687,9.696-2.429,12.465C-822.86,237.551-824.602,238.046-826.332,238.046z"/>
				</g>
				<g>
					<path fill="#526571" d="M-808.661,315.835c-4.098,0-7.796-2.828-8.75-6.985l-17.688-77.8c-1.099-4.84,1.934-9.653,6.769-10.743
						c4.84-1.108,9.649,1.926,10.749,6.765l17.692,77.79c1.095,4.84-1.93,9.646-6.77,10.743
						C-807.332,315.759-808,315.835-808.661,315.835z"/>
				</g>
				<g>
					<path fill="#526571" d="M-808.661,315.835c-4.127,0-7.847-2.862-8.759-7.063c-1.065-4.847,2.002-9.636,6.851-10.692
						l183.918-40.216c4.857-1.057,9.637,2.012,10.693,6.858c1.064,4.84-2.007,9.629-6.851,10.693l-183.922,40.216
						C-807.379,315.768-808.022,315.835-808.661,315.835z"/>
				</g>
				<g>
					<path fill="#526571" d="M-624.743,275.619c-4.531,0-8.426-3.425-8.92-8.025l-3.366-31.542
						c-0.527-4.933,3.043-9.363,7.975-9.892c4.942-0.512,9.36,3.05,9.885,7.975l3.374,31.55c0.528,4.925-3.046,9.356-7.984,9.885
						C-624.1,275.603-624.423,275.619-624.743,275.619z"/>
				</g>
				<g>
					<path fill="#526571" d="M-628.099,244.069c-2.302,0-4.597-0.877-6.353-2.624c-3.506-3.511-3.506-9.193,0-12.704l41.592-41.596
						c3.506-3.502,9.193-3.502,12.699,0c3.506,3.51,3.506,9.202,0,12.721l-41.588,41.579
						C-623.502,243.192-625.799,244.069-628.099,244.069z"/>
				</g>
				<g>
					<path fill="#526571" d="M-586.512,202.481c-4.907,0-8.913-3.945-8.98-8.861l-1.586-121.039
						c-0.067-4.967,3.903-9.04,8.862-9.108c0.042,0,0.085,0,0.118,0c4.913,0,8.917,3.945,8.981,8.87l1.585,121.038
						c0.067,4.959-3.903,9.041-8.861,9.1C-586.431,202.481-586.479,202.481-586.512,202.481z"/>
				</g>
				<g>
					<path fill="#526571" d="M-632.3,145.081c-1.769,0-3.554-0.511-5.121-1.602c-4.072-2.829-5.078-8.426-2.249-12.499
						l74.773-107.67c2.829-4.073,8.427-5.087,12.5-2.258c4.077,2.837,5.086,8.435,2.257,12.499l-74.773,107.679
						C-626.66,143.734-629.459,145.081-632.3,145.081z"/>
				</g>
				<g>
					<path fill="#526571" d="M-927.655,87.68c-2.087,0-4.184-0.725-5.888-2.207c-3.74-3.246-4.14-8.92-0.89-12.661l83.758-96.415
						c3.255-3.741,8.92-4.141,12.669-0.886c3.745,3.255,4.141,8.929,0.891,12.67l-83.754,96.407
						C-922.645,86.64-925.141,87.68-927.655,87.68z"/>
				</g>
				<g>
					<path fill="#526571" d="M-758.545,26.573c-1.142,0-2.305-0.213-3.425-0.673l-85.36-35.308c-4.58-1.9-6.761-7.157-4.865-11.732
						c1.896-4.593,7.144-6.765,11.732-4.874l85.36,35.317c4.584,1.891,6.761,7.14,4.865,11.724
						C-751.669,24.494-755.017,26.573-758.545,26.573z"/>
				</g>
				<g>
					<path fill="#526571" d="M-767.363,66.533c-0.643,0-1.295-0.068-1.951-0.213c-4.839-1.073-7.898-5.861-6.829-10.709
						l8.832-39.952c1.074-4.848,5.871-7.898,10.714-6.824c4.844,1.065,7.902,5.861,6.829,10.701l-8.832,39.952
						C-759.529,63.679-763.248,66.533-767.363,66.533z"/>
				</g>
				<g>
					<path fill="#526571" d="M-767.372,66.533h-69.517c-4.958,0-8.98-4.021-8.98-8.98c0-4.958,4.022-8.988,8.98-8.988h69.517
						c4.958,0,8.98,4.03,8.98,8.988C-758.392,62.511-762.413,66.533-767.372,66.533z"/>
				</g>
				<g>
					<path fill="#526571" d="M-782.308,95.356c-1.415,0-2.85-0.332-4.188-1.039l-54.594-28.824
						c-4.379-2.326-6.058-7.753-3.74-12.133c2.317-4.388,7.745-6.066,12.133-3.757l54.589,28.833
						c4.388,2.317,6.066,7.745,3.749,12.133C-775.969,93.619-779.087,95.356-782.308,95.356z"/>
				</g>
				<g>
					<path fill="#526571" d="M-744.623,193.331c-3.604,0-7.012-2.19-8.384-5.768l-37.676-97.966
						c-1.781-4.627,0.528-9.815,5.155-11.605c4.635-1.781,9.833,0.528,11.613,5.163l37.677,97.958
						c1.78,4.636-0.528,9.833-5.164,11.605C-742.458,193.136-743.549,193.331-744.623,193.331z"/>
				</g>
				<g>
					<path fill="#526571" d="M-860.413,6.951c-4.034,0-7.702-2.735-8.708-6.833l-33.604-135.924
						c-1.185-4.814,1.755-9.688,6.569-10.872c4.81-1.192,9.683,1.747,10.872,6.561l33.595,135.923
						c1.193,4.814-1.747,9.688-6.561,10.881C-858.973,6.857-859.702,6.951-860.413,6.951z"/>
				</g>
				<g>
					<path fill="#526571" d="M-893.995-128.973c-3.434,0-6.714-1.985-8.209-5.325c-2.02-4.524,0.008-9.841,4.541-11.869
						l55.083-24.615c4.524-2.019,9.841,0.018,11.86,4.533c2.028,4.525,0,9.85-4.533,11.869l-55.083,24.624
						C-891.529-129.229-892.772-128.973-893.995-128.973z"/>
				</g>
				<g>
					<path fill="#526571" d="M-763.452-13.72c-3.195,0-6.292-1.721-7.916-4.711l-75.456-139.886
						c-2.352-4.371-0.724-9.815,3.643-12.167c4.366-2.36,9.812-0.725,12.171,3.646l75.451,139.869
						c2.356,4.363,0.729,9.815-3.638,12.167C-760.555-14.069-762.012-13.72-763.452-13.72z"/>
				</g>
				<g>
					<path fill="#526571" d="M-763.469-13.72c-1.176,0-2.377-0.238-3.528-0.732c-4.558-1.951-6.671-7.217-4.72-11.783l59.86-139.886
						c1.95-4.558,7.229-6.671,11.792-4.711c4.558,1.943,6.675,7.225,4.724,11.784l-59.863,139.885
						C-756.662-15.764-759.98-13.72-763.469-13.72z"/>
				</g>
				<g>
					<path fill="#526571" d="M-675.217-17.366c-0.732,0-1.474-0.085-2.215-0.281c-4.81-1.227-7.72-6.109-6.492-10.915l28.38-111.615
						c1.22-4.805,6.109-7.711,10.915-6.493c4.806,1.227,7.715,6.118,6.492,10.923l-28.381,111.615
						C-667.552-20.067-671.203-17.366-675.217-17.366z"/>
				</g>
				<g>
					<path fill="#526571" d="M-752.427,131.917c-1.389,0-2.799-0.324-4.115-1.005c-4.405-2.275-6.131-7.694-3.855-12.098
						L-683.2-30.47c2.28-4.405,7.702-6.135,12.104-3.851c4.408,2.274,6.13,7.693,3.855,12.099l-77.198,149.283
						C-746.037,130.145-749.172,131.917-752.427,131.917z"/>
				</g>
				<g>
					<path fill="#526571" d="M-690.468,151.565c-0.903,0-1.814-0.128-2.719-0.417l-61.946-19.657
						c-4.729-1.5-7.349-6.543-5.849-11.263c1.5-4.737,6.552-7.353,11.281-5.854l61.945,19.647c4.725,1.5,7.35,6.552,5.846,11.272
						C-683.123,149.128-686.659,151.565-690.468,151.565z"/>
				</g>
				<g>
					<path fill="#526571" d="M-690.477,151.565c-1.432,0-2.888-0.341-4.242-1.065c-4.371-2.352-6.016-7.796-3.664-12.159
						L-620.27-7.244c2.343-4.371,7.796-6.015,12.163-3.672c4.371,2.352,6.011,7.788,3.667,12.167l-78.117,145.577
						C-684.176,149.853-687.272,151.565-690.477,151.565z"/>
				</g>
				<g>
					<path fill="#526571" d="M-612.354,5.988c-1.039,0-2.096-0.188-3.126-0.571l-62.867-23.345
						c-4.652-1.721-7.021-6.893-5.296-11.545c1.73-4.652,6.901-7.021,11.545-5.291l62.871,23.345
						c4.653,1.73,7.021,6.893,5.292,11.537C-605.282,3.747-608.708,5.988-612.354,5.988z"/>
				</g>
				<g>
					<path fill="#526571" d="M-557.51,37.419c-0.553,0-1.124-0.051-1.687-0.162l-65.056-12.389
						c-4.874-0.929-8.074-5.632-7.146-10.505c0.93-4.865,5.633-8.069,10.506-7.14l65.053,12.397
						c4.873,0.912,8.072,5.624,7.144,10.497C-549.517,34.42-553.283,37.419-557.51,37.419z"/>
				</g>
				<g>
					<path fill="#526571" d="M-632.291,145.089c-1.006,0-2.023-0.17-3.025-0.528l-45.907-16.384
						c-4.669-1.67-7.105-6.816-5.436-11.477c1.67-4.678,6.808-7.106,11.477-5.445l45.908,16.384
						c4.673,1.679,7.109,6.808,5.439,11.477C-625.143,142.797-628.606,145.089-632.291,145.089z"/>
				</g>
			</g>
		</g>
	</g>
</g>
<g id="Layer_6" display="none">
	<rect x="-1022.104" y="396.335" display="inline" fill="none" width="610.526" height="210.526"/>
	
		<text transform="matrix(1 0 0 1 -1022.1045 542.6807)" display="inline" stroke="#000000" stroke-width="5" stroke-miterlimit="10" font-family="'Casper'" font-size="207">AKAN</text>
	<g display="inline">
		<polygon fill="#00A699" points="-951.153,191.93 -967.725,40.279 -904.648,14.506 -773.755,-193.81 -649.975,-179.378 
			-672.365,-58.52 -549.389,-47.114 -532.111,57.19 -557.004,74.071 -555.259,155.808 -583.392,155.808 -576.979,229.225 
			-589.82,236.514 -589.82,288.18 -698.001,284.467 -797.895,315.942 -859.403,281.428 -951.124,281.428 		"/>
		<g>
			<g>
				<g>
					<path fill="#526571" d="M-901.399,46.059c-2.252,0-4.504-0.842-6.249-2.536c-3.559-3.447-3.645-9.128-0.198-12.687
						l83.993-86.627c3.447-3.559,9.128-3.645,12.687-0.194c3.558,3.447,3.644,9.128,0.197,12.687l-83.993,86.627
						C-896.715,45.148-899.062,46.059-901.399,46.059z"/>
				</g>
				<g>
					<path fill="#526571" d="M-817.424-40.568c-1.728,0-3.481-0.503-5.02-1.543c-4.108-2.776-5.183-8.354-2.398-12.463
						l81.792-120.858c2.785-4.1,8.363-5.179,12.463-2.398c4.109,2.776,5.184,8.355,2.407,12.463L-809.98-44.514
						C-811.716-41.948-814.544-40.568-817.424-40.568z"/>
				</g>
				<g>
					<path fill="#526571" d="M-677.347-148.263c-0.652,0-1.323-0.077-1.985-0.224l-58.259-13.159
						c-4.831-1.092-7.864-5.901-6.773-10.735c1.092-4.831,5.896-7.865,10.727-6.773l58.259,13.16
						c4.83,1.091,7.864,5.896,6.773,10.731C-669.542-151.095-673.246-148.263-677.347-148.263z"/>
				</g>
				<g>
					<path fill="#526571" d="M-710.043-15.81c-0.704,0-1.427-0.082-2.148-0.262c-4.813-1.19-7.753-6.051-6.567-10.865
						l32.688-132.458c1.186-4.809,6.051-7.744,10.864-6.558s7.753,6.051,6.566,10.86l-32.696,132.458
						C-702.342-18.543-706.003-15.81-710.043-15.81z"/>
				</g>
				<g>
					<path fill="#526571" d="M-568.006-13.089c-0.06,0-0.111-0.004-0.172-0.004l-142.037-2.716
						c-4.959-0.099-8.896-4.195-8.802-9.146c0.095-4.959,4.178-8.905,9.146-8.802l142.037,2.721c4.951,0.09,8.896,4.19,8.802,9.141
						C-559.127-16.996-563.123-13.089-568.006-13.089z"/>
				</g>
				<g>
					<path fill="#526571" d="M-731.952,14.506c-4.306,0-8.105-3.103-8.845-7.486c-0.816-4.887,2.476-9.515,7.366-10.34
						l163.938-27.591c4.891-0.825,9.515,2.467,10.331,7.357c0.825,4.887-2.467,9.515-7.357,10.34l-163.938,27.591
						C-730.955,14.463-731.462,14.506-731.952,14.506z"/>
				</g>
				<g>
					<path fill="#526571" d="M-740.212,57.977c-0.559,0-1.126-0.056-1.693-0.159c-4.865-0.928-8.063-5.63-7.134-10.495l8.277-43.471
						c0.928-4.869,5.63-8.067,10.495-7.139c4.874,0.928,8.071,5.63,7.143,10.495l-8.285,43.471
						C-732.228,54.981-735.992,57.977-740.212,57.977z"/>
				</g>
				<g>
					<path fill="#526571" d="M-556.273,74.097c-0.24,0-0.48-0.008-0.73-0.025l-197.158-15.867c-4.942-0.399-8.63-4.727-8.226-9.669
						c0.396-4.942,4.719-8.638,9.661-8.222L-555.56,56.18c4.934,0.395,8.621,4.723,8.226,9.666
						C-547.712,70.539-551.641,74.097-556.273,74.097z"/>
				</g>
				<g>
					<path fill="#526571" d="M-556.29,74.097c-4.427,0-8.277-3.271-8.888-7.778l-11.724-87.187
						c-0.662-4.912,2.784-9.433,7.701-10.091c4.908-0.658,9.429,2.789,10.091,7.697l11.724,87.19
						c0.662,4.908-2.784,9.429-7.701,10.091C-555.491,74.071-555.895,74.097-556.29,74.097z"/>
				</g>
				<g>
					<path fill="#526571" d="M-564.249,151.631c-4.144,0-7.865-2.893-8.768-7.113l-16.813-79.12
						c-1.031-4.848,2.063-9.609,6.911-10.641c4.848-1.031,9.617,2.063,10.649,6.911l16.813,79.12
						c1.031,4.848-2.063,9.614-6.911,10.646C-563.003,151.566-563.631,151.631-564.249,151.631z"/>
				</g>
				<g>
					<path fill="#526571" d="M-564.224,151.631c-0.559,0-1.117-0.056-1.676-0.159l-206.107-38.95
						c-4.874-0.919-8.071-5.617-7.151-10.482c0.919-4.874,5.612-8.066,10.486-7.151l206.098,38.945
						c4.873,0.92,8.079,5.617,7.151,10.486C-556.23,148.626-559.995,151.631-564.224,151.631z"/>
				</g>
				<g>
					<path fill="#526571" d="M-755.392,109.269c-0.12,0-0.232-0.004-0.352-0.009c-4.951-0.189-8.811-4.358-8.621-9.309l1.951-51.039
						c0.189-4.951,4.341-8.844,9.309-8.625c4.959,0.193,8.819,4.362,8.629,9.313l-1.959,51.039
						C-746.616,105.474-750.595,109.269-755.392,109.269z"/>
				</g>
				<g>
					<path fill="#526571" d="M-603.28,228.056c-0.164,0-0.327,0-0.499-0.013c-4.942-0.271-8.741-4.5-8.466-9.45l4.495-82.472
						c0.267-4.951,4.504-8.759,9.446-8.475c4.95,0.271,8.741,4.504,8.475,9.451l-4.495,82.476
						C-594.582,224.352-598.545,228.056-603.28,228.056z"/>
				</g>
				<g>
					<path fill="#526571" d="M-603.28,228.056c-0.886,0-1.788-0.129-2.683-0.408l-173.882-54.296
						c-4.736-1.474-7.366-6.511-5.888-11.238c1.47-4.736,6.507-7.375,11.234-5.892l173.883,54.296
						c4.736,1.474,7.375,6.511,5.896,11.238C-595.923,225.598-599.465,228.056-603.28,228.056z"/>
				</g>
				<g>
					<path fill="#526571" d="M-777.163,173.759c-0.327,0-0.662-0.017-1.006-0.052c-4.925-0.554-8.475-4.994-7.917-9.919
						l6.825-61.078c0.55-4.929,4.985-8.475,9.919-7.925c4.925,0.55,8.475,4.99,7.917,9.915l-6.825,61.082
						C-768.766,170.373-772.651,173.759-777.163,173.759z"/>
				</g>
				<g>
					<path fill="#526571" d="M-623.721,288.176c-0.154,0-0.317-0.005-0.473-0.014c-4.95-0.258-8.758-4.478-8.492-9.429l3.43-65.432
						c0.267-4.946,4.479-8.771,9.438-8.492c4.942,0.262,8.75,4.482,8.492,9.434l-3.438,65.432
						C-615.014,284.462-618.976,288.176-623.721,288.176z"/>
				</g>
				<g>
					<path fill="#526571" d="M-623.729,288.18c-0.997,0-2.021-0.168-3.018-0.524l-138.616-49.461c-4.667-1.668-7.1-6.8-5.433-11.471
						c1.667-4.667,6.799-7.1,11.466-5.433l138.616,49.458c4.667,1.667,7.1,6.803,5.44,11.47
						C-616.586,285.889-620.041,288.18-623.729,288.18z"/>
				</g>
				<g>
					<path fill="#526571" d="M-762.336,238.714c-0.499,0-1.014-0.043-1.521-0.129c-4.891-0.838-8.166-5.476-7.332-10.361
						l9.833-57.258c0.842-4.882,5.475-8.174,10.366-7.323c4.882,0.838,8.166,5.475,7.323,10.362l-9.833,57.257
						C-754.248,235.628-758.039,238.714-762.336,238.714z"/>
				</g>
				<g>
					<path fill="#526571" d="M-806.886,296.272c-4.091,0-7.788-2.815-8.742-6.976c-1.1-4.835,1.926-9.644,6.756-10.753
						l125.534-28.652c4.821-1.096,9.635,1.922,10.744,6.752c1.1,4.835-1.926,9.644-6.756,10.744l-125.526,28.656
						C-805.554,296.199-806.224,296.272-806.886,296.272z"/>
				</g>
				<g>
					<path fill="#526571" d="M-806.886,296.272c-1.453,0-2.922-0.353-4.289-1.096l-50.386-27.479
						c-4.349-2.372-5.957-7.826-3.576-12.175c2.373-4.354,7.822-5.953,12.171-3.585l50.386,27.483
						c4.349,2.373,5.957,7.822,3.584,12.171C-800.628,294.583-803.706,296.272-806.886,296.272z"/>
				</g>
				<g>
					<path fill="#526571" d="M-888.868,276.009c-4.1,0-7.796-2.819-8.741-6.979c-1.109-4.83,1.917-9.644,6.747-10.748l31.605-7.216
						c4.822-1.092,9.644,1.925,10.744,6.756c1.1,4.83-1.917,9.644-6.756,10.744l-31.596,7.211
						C-887.535,275.932-888.206,276.009-888.868,276.009z"/>
				</g>
				<g>
					<path fill="#526571" d="M-979.101,88.49c-3.18,0-6.257-1.689-7.882-4.671c-2.381-4.354-0.773-9.803,3.576-12.18l77.71-42.435
						c4.349-2.372,9.799-0.773,12.171,3.58c2.381,4.354,0.773,9.803-3.576,12.175l-77.71,42.435
						C-976.17,88.133-977.648,88.49-979.101,88.49z"/>
				</g>
				<g>
					<path fill="#526571" d="M-888.859,276.009c-3.335,0-6.541-1.874-8.088-5.088l-90.25-187.515
						c-2.149-4.465-0.267-9.825,4.194-11.973c4.47-2.153,9.833-0.275,11.982,4.19l90.242,187.519
						c2.157,4.461,0.275,9.824-4.195,11.974C-886.229,275.721-887.553,276.009-888.859,276.009z"/>
				</g>
			</g>
			<g>
				<g>
					<path fill="#526571" d="M-981.809,499.864l-15.893,43.347h-19.812l53.454-143.456h23.121l56.145,143.456h-19.408
						l-16.718-43.347H-981.809z M-976.445,484.591h49.543l-19.614-50.506l-5.776-20.912l-5.569,20.912L-976.445,484.591z"/>
					<path fill="#526571" d="M-881.141,545.703h-24.771l-16.718-43.346h-57.434l-15.893,43.346h-25.149l55.319-148.44h26.551
						L-881.141,545.703z M-902.491,540.718h14.045l-54.193-138.47h-19.683l-51.606,138.47h14.483l15.893-43.346h64.344
						L-902.491,540.718z M-923.257,487.083h-56.755l19.769-53.755l7.908-29.671l8.191,29.646L-923.257,487.083z M-972.87,482.098
						h42.323l-18.368-47.351l-3.335-12.06l-3.274,12.257L-972.87,482.098z"/>
				</g>
				<g>
					<path fill="#526571" d="M-850.533,399.755v62.75h14.449l41.077-62.75h21.256l-44.584,69.562l53.257,73.895h-22.296
						l-48.297-67.082h-14.861v67.082h-18.583V399.755H-850.533z"/>
					<path fill="#526571" d="M-760.213,545.703h-28.433l-48.306-67.082h-11.088v67.082h-23.568v-148.44h23.568v62.75h10.606
						l41.077-62.75h27.161l-46.123,71.973L-760.213,545.703z M-786.094,540.718h16.142l-51.4-71.319l43.045-67.15h-15.359
						l-41.077,62.75h-18.282v-62.75h-13.598v138.47h13.598v-67.082h18.626L-786.094,540.718z"/>
				</g>
				<g>
					<path fill="#526571" d="M-719.051,499.864l-15.893,43.347h-19.821l53.462-143.456h23.113l56.145,143.456h-19.399
						l-16.718-43.347H-719.051z M-713.688,484.591h49.535l-19.606-50.506l-5.775-20.912l-5.578,20.912L-713.688,484.591z"/>
					<path fill="#526571" d="M-618.392,545.703h-24.763l-16.718-43.346h-57.442l-15.893,43.346h-25.141l55.311-148.44h26.551
						L-618.392,545.703z M-639.733,540.718h14.036l-54.185-138.47h-19.691l-51.598,138.47h14.483l15.892-43.346h64.345
						L-639.733,540.718z M-660.508,487.083h-56.755l19.77-53.755l7.907-29.671l8.2,29.646L-660.508,487.083z M-710.111,482.098
						h42.323l-18.377-47.351l-3.326-12.06l-3.283,12.257L-710.111,482.098z"/>
				</g>
				<g>
					<path fill="#526571" d="M-606.357,543.211V399.755h23.74l71.624,115.177V399.755h18.574v143.456h-22.708l-72.656-117.446
						v117.446H-606.357z"/>
					<path fill="#526571" d="M-489.926,545.703h-26.586l-68.779-111.172v111.172h-23.56v-148.44h27.617l67.748,108.94v-108.94h23.56
						V545.703z M-513.735,540.718h18.824v-138.47H-508.5v121.417l-75.502-121.417h-19.863v138.47h13.589V416.997L-513.735,540.718z"
						/>
				</g>
			</g>
		</g>
	</g>
</g>
<g id="Layer_7" display="none">
	<g display="inline">
		<g>
			<g>
				<path fill="#526571" d="M-983.225,500.363l-15.988,43.598h-19.925l53.771-144.292h23.25l56.476,144.292h-19.52l-16.815-43.598
					H-983.225z M-977.823,484.995h49.826l-19.727-50.804l-5.806-21.032l-5.608,21.032L-977.823,484.995z"/>
				<path fill="#526571" d="M-881.971,546.468h-24.913l-16.815-43.598h-57.768l-15.988,43.598h-25.301l55.649-149.31h26.705
					L-881.971,546.468z M-903.438,541.454h14.119l-54.512-139.278h-19.796l-51.902,139.278h14.567l15.988-43.602h64.72
					L-903.438,541.454z M-924.336,487.502h-57.079l19.882-54.064l7.951-29.849l8.244,29.814L-924.336,487.502z M-974.231,482.488
					h42.573l-18.478-47.629l-3.351-12.13l-3.299,12.328L-974.231,482.488z"/>
			</g>
			<g>
				<path fill="#526571" d="M-851.183,399.669v63.114h14.532l41.315-63.114h21.39l-44.847,69.967l53.564,74.325h-22.423
					l-48.585-67.477h-14.946v67.477h-18.685V399.669H-851.183z"/>
				<path fill="#526571" d="M-760.335,546.468h-28.6l-48.577-67.477h-11.164v67.477h-23.698v-149.31h23.698v63.113h10.673
					l41.314-63.113h27.325l-46.397,72.392L-760.335,546.468z M-786.368,541.454h16.238l-51.695-71.741l43.288-67.537h-15.437
					l-41.315,63.114h-18.4v-63.114h-13.671v139.278h13.671v-67.477h18.745L-786.368,541.454z"/>
			</g>
			<g>
				<path fill="#526571" d="M-718.934,500.363l-15.98,43.598h-19.934l53.771-144.292h23.25l56.477,144.292h-19.521l-16.815-43.598
					H-718.934z M-713.533,484.995h49.826l-19.719-50.804l-5.814-21.032l-5.607,21.032L-713.533,484.995z"/>
				<path fill="#526571" d="M-617.68,546.468h-24.904l-16.824-43.598h-57.769l-15.988,43.598h-25.292l55.641-149.31h26.705
					L-617.68,546.468z M-639.147,541.454h14.119l-54.503-139.278h-19.805l-51.902,139.278h14.567l15.988-43.602h64.72
					L-639.147,541.454z M-660.037,487.502h-57.088l19.882-54.064l7.96-29.849l8.235,29.814L-660.037,487.502z M-709.94,482.488
					h42.572l-18.478-47.629l-3.352-12.13l-3.299,12.328L-709.94,482.488z"/>
			</g>
			<g>
				<path fill="#526571" d="M-605.576,543.961V399.669h23.879l72.042,115.847V399.669h18.685v144.292h-22.836l-73.085-118.134
					v118.134H-605.576z"/>
				<path fill="#526571" d="M-488.464,546.468h-26.739l-69.174-111.824v111.824h-23.707v-149.31h27.782l68.14,109.58v-109.58h23.698
					V546.468z M-512.412,541.454h18.935V402.176h-13.671v122.118l-75.944-122.118h-19.978v139.278h13.672V417.006L-512.412,541.454z
					"/>
			</g>
		</g>
		<g>
			<polyline fill="#00A699" points="-763.669,303.472 -985.973,218.938 -930.039,138.484 -886.562,-59.898 -773.726,-79.857 
				-721.553,-220.712 -604.599,-200.292 -627.173,-59.898 -551.836,55.152 -580.259,71.588 -551.836,123.947 -566.967,141.124 
				-594.942,233.858 -725.847,257.962 			"/>
			<g>
				<g>
					<g>
						<path fill="#526571" d="M-911.699,138.501c-0.5,0-0.999-0.039-1.516-0.125c-4.91-0.836-8.218-5.488-7.391-10.406
							l30.349-179.671c0.835-4.919,5.487-8.227,10.406-7.4c4.919,0.835,8.227,5.492,7.4,10.406l-30.357,179.671
							C-903.55,135.387-907.375,138.501-911.699,138.501z"/>
					</g>
				</g>
				<g>
					<g>
						<path fill="#526571" d="M-952.712,207.404c-1.568,0-3.162-0.405-4.609-1.271c-4.281-2.545-5.686-8.084-3.144-12.375
							l41.004-68.898c2.542-4.286,8.089-5.694,12.371-3.145s5.694,8.089,3.144,12.375l-41.004,68.903
							C-946.631,205.827-949.637,207.404-952.712,207.404z"/>
					</g>
				</g>
				<g>
					<g>
						<path fill="#526571" d="M-790.916,305.505c-1.594,0-3.205-0.422-4.669-1.31l-161.796-98.101
							c-4.264-2.584-5.625-8.132-3.041-12.396s8.132-5.625,12.396-3.041l161.796,98.097c4.264,2.589,5.625,8.137,3.041,12.4
							C-784.886,303.954-787.867,305.505-790.916,305.505z"/>
					</g>
				</g>
				<g>
					<g>
						<path fill="#526571" d="M-790.916,305.501c-1.913,0-3.842-0.607-5.479-1.865c-3.962-3.032-4.712-8.696-1.68-12.655
							l19.399-25.309c3.033-3.954,8.701-4.704,12.655-1.671c3.954,3.032,4.704,8.7,1.671,12.654l-19.391,25.309
							C-785.523,304.281-788.203,305.501-790.916,305.501z"/>
					</g>
				</g>
				<g>
					<g>
						<path fill="#526571" d="M-771.517,280.191c-4.884,0-8.898-3.894-9.019-8.8c-0.129-4.983,3.816-9.123,8.795-9.252l59.095-1.481
							c4.944-0.134,9.123,3.812,9.252,8.795c0.12,4.988-3.816,9.127-8.795,9.252l-59.095,1.481
							C-771.361,280.191-771.439,280.191-771.517,280.191z"/>
					</g>
				</g>
				<g>
					<g>
						<path fill="#526571" d="M-712.422,278.71c-2.196,0-4.393-0.797-6.133-2.408c-3.661-3.386-3.877-9.097-0.482-12.758
							l82.673-89.246c3.385-3.661,9.097-3.876,12.758-0.491c3.652,3.39,3.876,9.101,0.482,12.758l-82.673,89.254
							C-707.58,277.736-709.992,278.71-712.422,278.71z"/>
					</g>
				</g>
				<g>
					<g>
						<path fill="#526571" d="M-706.021,205.198c-4.188,0-7.943-2.938-8.83-7.202c-1.008-4.884,2.136-9.661,7.021-10.665
							l129.027-26.627c4.875-1.008,9.656,2.136,10.664,7.012c1.008,4.885-2.136,9.657-7.021,10.665l-129.027,26.627
							C-704.798,205.138-705.409,205.198-706.021,205.198z"/>
					</g>
				</g>
				<g>
					<g>
						<path fill="#526571" d="M-881.368-41.17c-4.591,0-8.528-3.498-8.968-8.171c-0.474-4.962,3.162-9.368,8.124-9.842
							l127.769-12.211c4.962-0.479,9.373,3.17,9.847,8.132c0.474,4.962-3.162,9.373-8.124,9.846l-127.778,12.207
							C-880.791-41.183-881.075-41.17-881.368-41.17z"/>
					</g>
				</g>
				<g>
					<g>
						<path fill="#526571" d="M-715.867,31.454c-3.454,0-6.754-1.999-8.253-5.358l-37.705-84.835
							c-2.033-4.557,0.017-9.889,4.574-11.914s9.889,0.026,11.914,4.583l37.714,84.826c2.024,4.557-0.026,9.894-4.583,11.922
							C-713.395,31.204-714.644,31.454-715.867,31.454z"/>
					</g>
				</g>
				<g>
					<g>
						<path fill="#526571" d="M-749.972,54.429c-2.895,0-5.746-1.396-7.495-3.98c-2.783-4.135-1.688-9.743,2.446-12.534
							l34.105-22.975c4.135-2.782,9.742-1.693,12.525,2.447c2.791,4.13,1.696,9.743-2.438,12.525l-34.104,22.979
							C-746.483,53.929-748.231,54.429-749.972,54.429z"/>
					</g>
				</g>
				<g>
					<g>
						<path fill="#526571" d="M-749.98,54.429c-2.231,0-4.471-0.823-6.22-2.485l-50.627-48.142
							c-3.609-3.438-3.756-9.148-0.318-12.763c3.437-3.613,9.148-3.751,12.766-0.323l50.619,48.146
							c3.618,3.437,3.765,9.148,0.327,12.762C-745.208,53.49-747.594,54.429-749.98,54.429z"/>
					</g>
				</g>
				<g>
					<g>
						<path fill="#526571" d="M-780.812,65.093c-3.773,0-7.288-2.386-8.554-6.151l-19.796-58.802
							c-1.585-4.729,0.956-9.847,5.677-11.44c4.729-1.585,9.846,0.956,11.439,5.677l19.788,58.802
							c1.594,4.725-0.948,9.846-5.677,11.436C-778.891,64.938-779.864,65.093-780.812,65.093z"/>
					</g>
				</g>
				<g>
					<g>
						<path fill="#526571" d="M-821.23,162.527c-1.146,0-2.317-0.22-3.454-0.689c-4.6-1.908-6.789-7.189-4.876-11.798l40.41-97.438
							c1.904-4.604,7.185-6.797,11.793-4.885c4.608,1.913,6.788,7.193,4.884,11.802l-40.41,97.438
							C-814.322,160.429-817.69,162.527-821.23,162.527z"/>
					</g>
				</g>
				<g>
					<g>
						<path fill="#526571" d="M-776.47-53.398c-1.516,0-3.05-0.379-4.462-1.188c-4.333-2.464-5.84-7.977-3.368-12.31l69.665-122.256
							c2.473-4.333,7.986-5.841,12.319-3.369c4.324,2.464,5.84,7.977,3.368,12.31l-69.674,122.256
							C-770.285-55.035-773.334-53.398-776.47-53.398z"/>
					</g>
				</g>
				<g>
					<g>
						<path fill="#526571" d="M-649.622-155.432c-0.999,0-2.016-0.168-3.007-0.517l-57.165-20.222
							c-4.704-1.663-7.167-6.823-5.505-11.522c1.663-4.699,6.822-7.159,11.518-5.5l57.174,20.218
							c4.695,1.667,7.159,6.823,5.496,11.526C-642.421-157.745-645.9-155.432-649.622-155.432z"/>
					</g>
				</g>
				<g>
					<g>
						<path fill="#526571" d="M-689.369-9.292c-0.784,0-1.576-0.103-2.378-0.319c-4.807-1.309-7.649-6.271-6.34-11.078
							l39.756-146.139c1.309-4.812,6.271-7.654,11.078-6.345c4.815,1.31,7.649,6.271,6.34,11.078L-680.66-15.951
							C-681.754-11.937-685.398-9.292-689.369-9.292z"/>
					</g>
				</g>
				<g>
					<g>
						<path fill="#526571" d="M-784.369,112.412c-3.748,0-7.236-2.343-8.537-6.082c-1.628-4.708,0.87-9.846,5.583-11.483
							l159.608-55.249c4.712-1.628,9.854,0.866,11.483,5.578c1.637,4.712-0.861,9.851-5.574,11.483l-159.608,55.253
							C-782.396,112.249-783.396,112.412-784.369,112.412z"/>
					</g>
				</g>
				<g>
					<g>
						<path fill="#526571" d="M-752.857,169.621c-3.188,0-6.271-1.688-7.917-4.669l-31.503-57.217
							c-2.403-4.368-0.818-9.855,3.549-12.258c4.368-2.404,9.855-0.818,12.267,3.549l31.503,57.213
							c2.403,4.368,0.818,9.859-3.549,12.263C-749.894,169.259-751.385,169.621-752.857,169.621z"/>
					</g>
				</g>
				<g>
					<g>
						<path fill="#526571" d="M-752.866,169.621c-3.791,0-7.322-2.408-8.571-6.202c-1.559-4.738,1.017-9.838,5.746-11.397
							l157.722-51.928c4.737-1.555,9.837,1.017,11.396,5.754s-1.017,9.838-5.746,11.397l-157.721,51.923
							C-750.979,169.474-751.927,169.621-752.866,169.621z"/>
					</g>
				</g>
				<g>
					<g>
						<path fill="#526571" d="M-595.136,117.702c-3.343,0-6.556-1.861-8.115-5.065l-29.616-60.542
							c-2.188-4.479-0.336-9.881,4.144-12.073s9.881-0.336,12.077,4.139l29.608,60.546c2.188,4.476,0.336,9.885-4.144,12.073
							C-592.457,117.404-593.81,117.702-595.136,117.702z"/>
					</g>
				</g>
				<g>
					<g>
						<path fill="#526571" d="M-576.977,178.571c-2.809,0-5.574-1.31-7.34-3.765l-38.791-54.082
							c-2.911-4.049-1.98-9.691,2.067-12.594c4.058-2.907,9.691-1.981,12.595,2.072l38.8,54.077
							c2.902,4.053,1.981,9.696-2.076,12.599C-573.315,178.02-575.15,178.571-576.977,178.571z"/>
					</g>
				</g>
				<g>
					<g>
						<path fill="#526571" d="M-706.004,205.198c-3.299,0-6.478-1.817-8.063-4.962l-22.079-43.731
							c-2.249-4.449-0.465-9.876,3.988-12.125c4.445-2.248,9.872-0.465,12.12,3.989l22.088,43.731
							c2.248,4.449,0.465,9.876-3.988,12.125C-703.247,204.888-704.634,205.198-706.004,205.198z"/>
					</g>
				</g>
				<g>
					<g>
						<path fill="#526571" d="M-726.368,7.842c-3.808,0-7.349-2.429-8.589-6.254c-1.533-4.738,1.068-9.829,5.807-11.363
							l92.631-29.982c4.746-1.538,9.838,1.064,11.371,5.811c1.533,4.742-1.068,9.829-5.807,11.362l-92.631,29.982
							C-724.517,7.695-725.446,7.842-726.368,7.842z"/>
					</g>
				</g>
				<g>
					<g>
						<path fill="#526571" d="M-593.043,44.233c-3.032,0-5.995-1.529-7.701-4.312l-40.686-66.374
							c-2.61-4.247-1.275-9.803,2.98-12.414c4.247-2.606,9.803-1.275,12.413,2.98l40.687,66.375
							c2.602,4.247,1.266,9.808-2.981,12.413C-589.804,43.807-591.432,44.233-593.043,44.233z"/>
					</g>
				</g>
				<g>
					<g>
						<path fill="#526571" d="M-624.752,57.159c-3.566,0-6.943-2.119-8.365-5.625c-1.887-4.617,0.336-9.885,4.953-11.768
							l31.71-12.921c4.617-1.882,9.89,0.336,11.768,4.953c1.878,4.618-0.336,9.89-4.953,11.768l-31.71,12.921
							C-622.47,56.944-623.624,57.159-624.752,57.159z"/>
					</g>
				</g>
				<g>
					<g>
						<path fill="#526571" d="M-762.988,101.3c-3.333,0-6.538-1.848-8.115-5.04l-17.814-36.215
							c-2.197-4.471-0.354-9.885,4.118-12.086c4.471-2.196,9.889-0.357,12.086,4.118l17.814,36.215
							c2.197,4.471,0.362,9.881-4.118,12.086C-760.292,101.007-761.653,101.3-762.988,101.3z"/>
					</g>
				</g>
			</g>
		</g>
	</g>
</g>
</svg>
